<svg width="800" height="550" viewBox="0 0 800 550" xmlns="http://www.w3.org/2000/svg" font-family="Inter, sans-serif" font-size="14px">
  <!-- 
    CSMA/CA Frame Transmission Diagram (Dark Mode)
    A modern, dark-themed SVG visualization of a frame exchange process,
    including retransmission after a potential collision.
  -->

  <!-- Definitions for arrowhead markers -->
  <defs>
    <marker id="arrowhead-csma" viewBox="0 0 10 10" refX="8" refY="5"
        markerUnits="strokeWidth" markerWidth="8" markerHeight="6"
        orient="auto">
      <path d="M 0 0 L 10 5 L 0 10 z" fill="#9CA3AF"/>
    </marker>
  </defs>

  <!-- Background -->

  <!-- Main Actors and Timelines -->
  <g id="actors-csma" fill="#E5E7EB" text-anchor="middle">
    <!-- Source Station -->
    <g id="src-station-icon" transform="translate(150, 60)">
      <rect x="-45" y="-30" width="90" height="60" rx="8" ry="8" fill="#374151" stroke="#4B5563" stroke-width="2"/>
      <rect x="-55" y="30" width="110" height="8" rx="4" ry="4" fill="#4B5563"/>
      <line x1="-35" y1="-20" x2="35" y2="-20" stroke="#111827" stroke-width="20"/>
    </g>
    <text x="150" y="125" font-weight="500">SRC ST</text>
    <line x1="150" y1="140" x2="150" y2="500" stroke="#374151" stroke-width="2"/>

    <!-- Destination Station -->
    <g id="dest-station-icon" transform="translate(650, 60)">
        <rect x="-45" y="-30" width="90" height="60" rx="8" ry="8" fill="#374151" stroke="#4B5563" stroke-width="2"/>
        <rect x="-55" y="30" width="110" height="8" rx="4" ry="4" fill="#4B5563"/>
        <line x1="-35" y1="-20" x2="35" y2="-20" stroke="#111827" stroke-width="20"/>
    </g>
    <text x="650" y="125" font-weight="500">DEST ST</text>
    <line x1="650" y1="140" x2="650" y2="500" stroke="#374151" stroke-width="2"/>
  </g>

  <!-- Message Arrows and Text -->
  <g id="messages-csma" text-anchor="middle" font-size="13px" font-weight="500" fill="#E5E7EB">
    
    <!-- Initial Frame -->
    <line x1="160" y1="180" x2="640" y2="230" stroke="#9CA3AF" stroke-width="2" marker-end="url(#arrowhead-csma)"/>
    <text x="400" y="195">frame</text>

    <!-- Initial ACK -->
    <line x1="640" y1="280" x2="160" y2="330" stroke="#9CA3AF" stroke-width="2" marker-end="url(#arrowhead-csma)"/>
    <text x="400" y="295">ACK</text>
    
    <!-- Retransmission Frame -->
    <line x1="160" y1="350" x2="640" y2="400" stroke="#9CA3AF" stroke-width="2" marker-end="url(#arrowhead-csma)"/>
    <text x="400" y="365">retransmission frame</text>

    <!-- Final ACK -->
    <line x1="640" y1="420" x2="160" y2="470" stroke="#9CA3AF" stroke-width="2" marker-end="url(#arrowhead-csma)"/>
    <text x="400" y="435">ACK</text>
  </g>
  
  <!-- Collision Detection Time Annotation -->
  <g id="collision-annotation" fill="#FBBF24" text-anchor="start">
    <!-- Curly brace path -->
    <path d="M 670 230 Q 680 230 680 240 L 680 270 Q 680 280 670 280 M 680 255 L 685 255" stroke="#FBBF24" stroke-width="2" fill="none"/>
    <text x="695" y="250">earliest</text>
    <text x="695" y="268">collision</text>
    <text x="695" y="286">detection</text>
    <text x="695" y="304">time</text>
  </g>

</svg>
