<svg width="800" height="650" viewBox="0 0 800 650" xmlns="http://www.w3.org/2000/svg" font-family="Inter, sans-serif" font-size="14px">
  <!-- 
    Wi-Fi Handshake Sequence Diagram (Dark Mode v3)
    A modern, dark-themed SVG visualization of the 802.11 association process.
    This version uses colored text instead of background boxes for a minimalist style.
  -->

  <!-- Definitions for arrowhead markers -->
  <defs>
    <marker id="arrowhead" viewBox="0 0 10 10" refX="8" refY="5"
        markerUnits="strokeWidth" markerWidth="8" markerHeight="6"
        orient="auto">
      <path d="M 0 0 L 10 5 L 0 10 z" fill="#6B7280"/>
    </marker>
    <marker id="arrowhead-start" viewBox="0 0 10 10" refX="2" refY="5"
        markerUnits="strokeWidth" markerWidth="8" markerHeight="6"
        orient="auto">
      <path d="M 10 0 L 0 5 L 10 10 z" fill="#6B7280"/>
    </marker>
    <!-- Checkmark icon for data transfer -->
    <symbol id="checkmark-icon" viewBox="0 0 24 24">
        <path fill-rule="evenodd" clip-rule="evenodd" d="M19.707 5.293a1 1 0 0 1 0 1.414l-11 11a1 1 0 0 1-1.414 0l-5-5a1 1 0 1 1 1.414-1.414L8 15.586l10.293-10.293a1 1 0 0 1 1.414 0z" fill="white"/>
    </symbol>
  </defs>

  <!-- Background -->
  <rect width="100%" height="100%" fill="#111827"/>

  <!-- Main Actors and Timelines -->
  <g id="actors" fill="#E5E7EB" text-anchor="middle">
    <g id="mobile-station-icon" transform="translate(150, 60)">
      <rect x="-45" y="-30" width="90" height="60" rx="8" ry="8" fill="#374151" stroke="#4B5563" stroke-width="2"/>
      <rect x="-55" y="30" width="110" height="8" rx="4" ry="4" fill="#4B5563"/>
      <line x1="-35" y1="-20" x2="35" y2="-20" stroke="#111827" stroke-width="20"/>
    </g>
    <text x="150" y="125">Mobile Station</text>
    <line x1="150" y1="140" x2="150" y2="600" stroke="#374151" stroke-width="2"/>

    <g id="access-point-icon" transform="translate(650, 60)">
        <rect x="-40" y="-15" width="80" height="40" rx="8" ry="8" fill="#374151" stroke="#4B5563" stroke-width="2"/>
        <line x1="-25" y1="-15" x2="-10" y2="-35" stroke="#9CA3AF" stroke-width="3" stroke-linecap="round"/>
        <line x1="25" y1="-15" x2="10" y2="-35" stroke="#9CA3AF" stroke-width="3" stroke-linecap="round"/>
        <circle cx="-22" cy="5" r="3" fill="#10B981"/>
        <circle cx="-8" cy="5" r="3" fill="#4B5563"/>
        <circle cx="6" cy="5" r="3" fill="#4B5563"/>
    </g>
    <text x="650" y="125">Access Point</text>
    <line x1="650" y1="140" x2="650" y2="600" stroke="#374151" stroke-width="2"/>
  </g>

  <!-- Message Arrows and Text -->
  <g id="messages" text-anchor="middle" font-size="13px" font-weight="500">
    
    <!-- Phase 1: Discovery -->
    <g id="discovery-phase">
        <line x1="160" y1="170" x2="640" y2="170" stroke="#6B7280" stroke-width="2" marker-end="url(#arrowhead)"/>
        <text x="400" y="165" fill="#3B82F6">1. Discovery: Client sends Probe Request</text>

        <line x1="640" y1="220" x2="160" y2="220" stroke="#6B7280" stroke-width="2" marker-end="url(#arrowhead)"/>
        <text x="400" y="215" fill="#3B82F6">2. Discovery: AP replies with Probe Response</text>
    </g>

    <!-- Phase 2: Authentication -->
    <g id="authentication-phase">
        <line x1="160" y1="280" x2="640" y2="280" stroke="#6B7280" stroke-width="2" marker-end="url(#arrowhead)"/>
        <text x="400" y="275" fill="#EF4444">3. Authentication: Client sends Auth Request</text>

        <line x1="640" y1="330" x2="160" y2="330" stroke="#6B7280" stroke-width="2" marker-end="url(#arrowhead)"/>
        <text x="400" y="325" fill="#FBBF24">4. Authentication: AP replies with Auth Response (→ State 2)</text>
    </g>
    
    <!-- Phase 3: Association -->
    <g id="association-phase">
        <line x1="160" y1="390" x2="640" y2="390" stroke="#6B7280" stroke-width="2" marker-end="url(#arrowhead)"/>
        <text x="400" y="385" fill="#10B981">5. Association: Client sends Association Request</text>

        <line x1="640" y1="440" x2="160" y2="440" stroke="#6B7280" stroke-width="2" marker-end="url(#arrowhead)"/>
        <text x="400" y="435" fill="#10B981">6. Association: AP replies with Association Response (→ State 3)</text>
    </g>
  </g>
  
  <!-- Data Transfer -->
  <g id="data-transfer" transform="translate(400, 520)" text-anchor="middle">
    <rect x="-180" y="-12" width="360" height="32" rx="8" fill="#4B5563"/>
    <use href="#checkmark-icon" x="-170" y="-8" width="24" height="24"/>
    <text x="0" y="8" fill="white" font-weight="500" font-size="14px">Data Transfer: Full connection, data can flow</text>
  </g>

</svg>
