<svg viewBox="0 0 800 350" xmlns="http://www.w3.org/2000/svg" class="w-full h-auto">
    <defs>
        <linearGradient id="grad-blue" x1="0%" y1="0%" x2="0%" y2="100%">
            <stop offset="0%" style="stop-color:#60a5fa;stop-opacity:1" />
            <stop offset="100%" style="stop-color:#3b82f6;stop-opacity:1" />
        </linearGradient>
        <linearGradient id="grad-green" x1="0%" y1="0%" x2="0%" y2="100%">
            <stop offset="0%" style="stop-color:#4ade80;stop-opacity:1" />
            <stop offset="100%" style="stop-color:#22c55e;stop-opacity:1" />
        </linearGradient>
        <linearGradient id="grad-yellow" x1="0%" y1="0%" x2="0%" y2="100%">
            <stop offset="0%" style="stop-color:#facc15;stop-opacity:1" />
            <stop offset="100%" style="stop-color:#f59e0b;stop-opacity:1" />
        </linearGradient>
        <filter id="shadow" x="-20%" y="-20%" width="140%" height="140%">
            <feGaussianBlur in="SourceAlpha" stdDeviation="4"/>
            <feOffset dx="3" dy="3" result="offsetblur"/>
            <feComponentTransfer>
                <feFuncA type="linear" slope="0.3"/>
            </feComponentTransfer>
            <feMerge>
                <feMergeNode/>
                <feMergeNode in="SourceGraphic"/>
            </feMerge>
        </filter>
    </defs>
    <g transform="translate(50, 100)">
        <rect x="0" y="0" width="200" height="100" rx="12" ry="12" fill="url(#grad-blue)" filter="url(#shadow)" />
        <text x="100" y="55" font-size="18" fill="white" font-weight="500" text-anchor="middle">MAC Header</text>
    </g>
    <g transform="translate(260, 100)">
        <rect x="0" y="0" width="380" height="100" rx="12" ry="12" fill="url(#grad-green)" filter="url(#shadow)" />
        <text x="190" y="50" font-size="18" fill="white" font-weight="500" text-anchor="middle">Payload</text>
        <text x="190" y="75" font-size="16" fill="white" font-weight="400" text-anchor="middle">0 - 2304 Bytes</text>
    </g>
    <g transform="translate(650, 100)">
        <rect x="0" y="0" width="100" height="100" rx="12" ry="12" fill="url(#grad-yellow)" filter="url(#shadow)" />
        <text x="50" y="55" font-size="18" fill="#422006" font-weight="500" text-anchor="middle">Trailer</text>
    </g>
    <g>
        <text x="450" y="55" font-size="16" fill="#4b5563" text-anchor="middle" font-weight="600" class="dark:fill-gray-300">Upper Layer Protocols</text>
        <text x="450" y="75" font-size="14" fill="#6b7280" text-anchor="middle" class="dark:fill-gray-400">Layer 3 - 7</text>
        <path d="M270,85 C 270,95, 300,95, 300,95 L 440,95 L 450,100 L 460,95 L 600,95 C 600,95, 630,95, 630,85" stroke="#4b5563" stroke-width="2.5" fill="none" class="dark:stroke-gray-400"/>
    </g>
    <g>
        <path d="M260,215 C 260,225, 290,225, 290,225 L 495,225 L 505,230 L 515,225 L 720,225 C 720,225, 750,225, 750,215" stroke="#4b5563" stroke-width="2.5" fill="none" class="dark:stroke-gray-400"/>
        <text x="505" y="255" font-size="18" fill="#4b5563" text-anchor="middle" font-weight="500" class="dark:fill-gray-300">Frame Body</text>
    </g>
</svg>